{
  "accessors": [
    {
      "bufferView": 2,
      "componentType": 5126,
      "count": 65532,
      "max": [
        0.97457075119018555,
        2.525738000869751,
        2.148158073425293
      ],
      "min": [
        0,
        0,
        0.24193191528320312
      ],
      "type": "VEC3"
    },
    {
      "bufferView": 2,
      "byteOffset": 786384,
      "componentType": 5126,
      "count": 65532,
      "max": [
        0.99769538640975952,
        0.97515964508056641,
        0.99999773502349854
      ],
      "min": [
        -0.99999815225601196,
        -0.99996191263198853,
        -0.9518769383430481
      ],
      "type": "VEC3"
    },
    {
      "bufferView": 3,
      "componentType": 5126,
      "count": 65532,
      "max": [
        0.94442594051361084,
        0.91814959049224854,
        0.73001575469970703,
        1
      ],
      "min": [
        -0.99853110313415527,
        -0.99999493360519409,
        -0.99999892711639404,
        -1
      ],
      "type": "VEC4"
    },
    {
      "bufferView": 1,
      "componentType": 5126,
      "count": 65532,
      "max": [
        0.92774498462677002,
        0.96517801284790039
      ],
      "min": [
        0.10357999801635742,
        0.15425199270248413
      ],
      "type": "VEC2"
    },
    {
      "bufferView": 0,
      "componentType": 5125,
      "count": 366123,
      "max": [
        65531
      ],
      "min": [
        0
      ],
      "type": "SCALAR"
    },
    {
      "bufferView": 2,
      "byteOffset": 1572768,
      "componentType": 5126,
      "count": 65532,
      "max": [
        1.2327280044555664,
        2.7313950061798096,
        2.1581592559814453
      ],
      "min": [
        0.20095300674438477,
        0.048808097839355469,
        0
      ],
      "type": "VEC3"
    },
    {
      "bufferView": 2,
      "byteOffset": 2359152,
      "componentType": 5126,
      "count": 65532,
      "max": [
        0.99822515249252319,
        0.99761474132537842,
        0.99999642372131348
      ],
      "min": [
        -0.99987500905990601,
        -0.99928265810012817,
        -0.99997597932815552
      ],
      "type": "VEC3"
    },
    {
      "bufferView": 3,
      "byteOffset": 1048512,
      "componentType": 5126,
      "count": 65532,
      "max": [
        0.99995929002761841,
        0.8170439600944519,
        0.99989503622055054,
        1
      ],
      "min": [
        -0.99992740154266357,
        -0.99999916553497314,
        -0.9999997615814209,
        -1
      ],
      "type": "VEC4"
    },
    {
      "bufferView": 1,
      "byteOffset": 524256,
      "componentType": 5126,
      "count": 65532,
      "max": [
        0.994159996509552,
        0.99231600761413574
      ],
      "min": [
        0.031247999519109726,
        0.0038389998953789473
      ],
      "type": "VEC2"
    },
    {
      "bufferView": 0,
      "byteOffset": 1464492,
      "componentType": 5125,
      "count": 342534,
      "max": [
        65531
      ],
      "min": [
        0
      ],
      "type": "SCALAR"
    },
    {
      "bufferView": 2,
      "byteOffset": 3145536,
      "componentType": 5126,
      "count": 65532,
      "max": [
        1.6676449775695801,
        2.7317581176757812,
        2.1581306457519531
      ],
      "min": [
        0.46318912506103516,
        0,
        0
      ],
      "type": "VEC3"
    },
    {
      "bufferView": 2,
      "byteOffset": 3931920,
      "componentType": 5126,
      "count": 65532,
      "max": [
        0.89374911785125732,
        0.99298453330993652,
        0.99997955560684204
      ],
      "min": [
        -0.96346479654312134,
        -0.99999785423278809,
        -0.99999904632568359
      ],
      "type": "VEC3"
    },
    {
      "bufferView": 3,
      "byteOffset": 2097024,
      "componentType": 5126,
      "count": 65532,
      "max": [
        0.9964260458946228,
        0.99974149465560913,
        0.99970680475234985,
        1
      ],
      "min": [
        -0.99979811906814575,
        -0.99999517202377319,
        -0.98946601152420044,
        -1
      ],
      "type": "VEC4"
    },
    {
      "bufferView": 1,
      "byteOffset": 1048512,
      "componentType": 5126,
      "count": 65532,
      "max": [
        0.99336999654769897,
        0.99624097347259521
      ],
      "min": [
        0.0038290000520646572,
        0.0069809998385608196
      ],
      "type": "VEC2"
    },
    {
      "bufferView": 0,
      "byteOffset": 2834628,
      "componentType": 5125,
      "count": 319179,
      "max": [
        65531
      ],
      "min": [
        0
      ],
      "type": "SCALAR"
    },
    {
      "bufferView": 2,
      "byteOffset": 4718304,
      "componentType": 5126,
      "count": 65532,
      "max": [
        1.8382840156555176,
        2.7262129783630371,
        2.1532154083251953
      ],
      "min": [
        0.84022283554077148,
        0.0017712116241455078,
        0.00070667266845703125
      ],
      "type": "VEC3"
    },
    {
      "bufferView": 2,
      "byteOffset": 5504688,
      "componentType": 5126,
      "count": 65532,
      "max": [
        0.99972140789031982,
        0.99991041421890259,
        0.99995028972625732
      ],
      "min": [
        -0.99994045495986938,
        -0.99999856948852539,
        -0.9999963641166687
      ],
      "type": "VEC3"
    },
    {
      "bufferView": 3,
      "byteOffset": 3145536,
      "componentType": 5126,
      "count": 65532,
      "max": [
        0.99995929002761841,
        0.99997133016586304,
        0.99217683076858521,
        1
      ],
      "min": [
        -0.99971795082092285,
        -0.9999421238899231,
        -0.99364495277404785,
        -1
      ],
      "type": "VEC4"
    },
    {
      "bufferView": 1,
      "byteOffset": 1572768,
      "componentType": 5126,
      "count": 65532,
      "max": [
        0.99272602796554565,
        0.99567300081253052
      ],
      "min": [
        0.0063060000538825989,
        0.011225000023841858
      ],
      "type": "VEC2"
    },
    {
      "bufferView": 0,
      "byteOffset": 4111344,
      "componentType": 5125,
      "count": 322488,
      "max": [
        65531
      ],
      "min": [
        0
      ],
      "type": "SCALAR"
    },
    {
      "bufferView": 2,
      "byteOffset": 6291072,
      "componentType": 5126,
      "count": 35186,
      "max": [
        1.8491768836975098,
        2.6911220550537109,
        1.8687429428100586
      ],
      "min": [
        0.33368587493896484,
        0.22412014007568359,
        0.15026473999023438
      ],
      "type": "VEC3"
    },
    {
      "bufferView": 2,
      "byteOffset": 6713304,
      "componentType": 5126,
      "count": 35186,
      "max": [
        0.99999320507049561,
        0.95587694644927979,
        0.99812555313110352
      ],
      "min": [
        -0.99499320983886719,
        -0.99441587924957275,
        -0.93901675939559937
      ],
      "type": "VEC3"
    },
    {
      "bufferView": 3,
      "byteOffset": 4194048,
      "componentType": 5126,
      "count": 35186,
      "max": [
        0.86128532886505127,
        0.99999397993087769,
        0.98084211349487305,
        1
      ],
      "min": [
        -0.9489060640335083,
        -0.99905163049697876,
        -0.97965443134307861,
        -1
      ],
      "type": "VEC4"
    },
    {
      "bufferView": 1,
      "byteOffset": 2097024,
      "componentType": 5126,
      "count": 35186,
      "max": [
        0.99042201042175293,
        0.99475997686386108
      ],
      "min": [
        0.015783000737428665,
        0.0028969999402761459
      ],
      "type": "VEC2"
    },
    {
      "bufferView": 0,
      "byteOffset": 5401296,
      "componentType": 5125,
      "count": 180492,
      "max": [
        35185
      ],
      "min": [
        0
      ],
      "type": "SCALAR"
    }
  ],
  "asset": {
    "extras": {
      "author": "MacDesigns (https://sketchfab.com/MacDesigns)",
      "license": "CC-BY-4.0 (http://creativecommons.org/licenses/by/4.0/)",
      "source": "https://sketchfab.com/models/05466f98b03e4a6bb35ee0d89d02ed18",
      "title": "Creepy Doll Head"
    },
    "generator": "Sketchfab-3.20.7",
    "version": "2.0"
  },
  "bufferViews": [
    {
      "buffer": 0,
      "byteLength": 6123264,
      "byteOffset": 0,
      "name": "floatBufferViews",
      "target": 34963
    },
    {
      "buffer": 0,
      "byteLength": 2378512,
      "byteOffset": 6123264,
      "byteStride": 8,
      "name": "floatBufferViews",
      "target": 34962
    },
    {
      "buffer": 0,
      "byteLength": 7135536,
      "byteOffset": 8501776,
      "byteStride": 12,
      "name": "floatBufferViews",
      "target": 34962
    },
    {
      "buffer": 0,
      "byteLength": 4757024,
      "byteOffset": 15637312,
      "byteStride": 16,
      "name": "floatBufferViews",
      "target": 34962
    }
  ],
  "buffers": [
    {
      "byteLength": 20394336,
      "uri": "scene.bin"
    }
  ],
  "extensionsRequired": [
    "KHR_materials_pbrSpecularGlossiness"
  ],
  "extensionsUsed": [
    "KHR_materials_pbrSpecularGlossiness"
  ],
  "images": [
    {
      "uri": "textures/Creepy_Doll_Head_diffuse.jpeg"
    },
    {
      "uri": "textures/Creepy_Doll_Head_specularGlossiness.png"
    }
  ],
  "materials": [
    {
      "doubleSided": true,
      "emissiveFactor": [
        0,
        0,
        0
      ],
      "extensions": {
        "KHR_materials_pbrSpecularGlossiness": {
          "diffuseFactor": [
            1,
            1,
            1,
            1
          ],
          "diffuseTexture": {
            "index": 0,
            "texCoord": 0
          },
          "glossinessFactor": 1,
          "specularFactor": [
            0,
            0,
            0
          ],
          "specularGlossinessTexture": {
            "index": 1,
            "texCoord": 0
          }
        }
      },
      "name": "Creepy_Doll_Head"
    }
  ],
  "meshes": [
    {
      "primitives": [
        {
          "attributes": {
            "NORMAL": 1,
            "POSITION": 0,
            "TANGENT": 2,
            "TEXCOORD_0": 3
          },
          "indices": 4,
          "material": 0,
          "mode": 4
        }
      ]
    },
    {
      "primitives": [
        {
          "attributes": {
            "NORMAL": 6,
            "POSITION": 5,
            "TANGENT": 7,
            "TEXCOORD_0": 8
          },
          "indices": 9,
          "material": 0,
          "mode": 4
        }
      ]
    },
    {
      "primitives": [
        {
          "attributes": {
            "NORMAL": 11,
            "POSITION": 10,
            "TANGENT": 12,
            "TEXCOORD_0": 13
          },
          "indices": 14,
          "material": 0,
          "mode": 4
        }
      ]
    },
    {
      "primitives": [
        {
          "attributes": {
            "NORMAL": 16,
            "POSITION": 15,
            "TANGENT": 17,
            "TEXCOORD_0": 18
          },
          "indices": 19,
          "material": 0,
          "mode": 4
        }
      ]
    },
    {
      "primitives": [
        {
          "attributes": {
            "NORMAL": 21,
            "POSITION": 20,
            "TANGENT": 22,
            "TEXCOORD_0": 23
          },
          "indices": 24,
          "material": 0,
          "mode": 4
        }
      ]
    }
  ],
  "nodes": [
    {
      "children": [
        1
      ],
      "name": "RootNode (gltf orientation matrix)",
      "rotation": [
        -0.70710678118654746,
        -0,
        -0,
        0.70710678118654757
      ]
    },
    {
      "children": [
        2
      ],
      "matrix": [
        1,
        0,
        0,
        0,
        0,
        0,
        -1,
        0,
        0,
        1,
        0,
        0,
        0,
        -13.25062084197998,
        10.128937721252441,
        1
      ],
      "name": "RootNode (model correction matrix)"
    },
    {
      "children": [
        3
      ],
      "matrix": [
        1,
        0,
        0,
        0,
        0,
        1,
        0,
        0,
        0,
        0,
        1,
        0,
        3.9660511016845703,
        -2.9267210960388184,
        10.610744476318359,
        1
      ],
      "name": "Creepy_Doll_Head.obj.cleaner.materialmerger.gles"
    },
    {
      "children": [
        4,
        5,
        6,
        7,
        8
      ],
      "name": ""
    },
    {
      "mesh": 0,
      "name": ""
    },
    {
      "mesh": 1,
      "name": ""
    },
    {
      "mesh": 2,
      "name": ""
    },
    {
      "mesh": 3,
      "name": ""
    },
    {
      "mesh": 4,
      "name": ""
    }
  ],
  "samplers": [
    {
      "magFilter": 9729,
      "minFilter": 9987,
      "wrapS": 10497,
      "wrapT": 10497
    }
  ],
  "scene": 0,
  "scenes": [
    {
      "name": "OSG_Scene",
      "nodes": [
        0
      ]
    }
  ],
  "textures": [
    {
      "sampler": 0,
      "source": 0
    },
    {
      "sampler": 0,
      "source": 1
    }
  ]
}

